<svg width="20" height="19" viewBox="0 0 20 19" fill="none" xmlns="http://www.w3.org/2000/svg">
<path d="M14.9394 0.708984C16.2804 0.708984 17.5704 1.23898 18.5194 2.18998C19.4694 3.13898 20.0004 4.41898 20.0004 5.75898V13.659C20.0004 16.449 17.7304 18.709 14.9394 18.709H5.0604C2.2694 18.709 0.000396729 16.449 0.000396729 13.659V5.75898C0.000396729 2.96898 2.2594 0.708984 5.0604 0.708984H14.9394ZM16.0704 5.90898C15.8604 5.89798 15.6604 5.96898 15.5094 6.10898L11.0004 9.70898C10.4204 10.19 9.5894 10.19 9.0004 9.70898L4.5004 6.10898C4.1894 5.87898 3.7594 5.90898 3.5004 6.17898C3.2304 6.44898 3.2004 6.87898 3.4294 7.17898L3.5604 7.30898L8.1104 10.859C8.6704 11.299 9.3494 11.539 10.0604 11.539C10.7694 11.539 11.4604 11.299 12.0194 10.859L16.5304 7.24898L16.6104 7.16898C16.8494 6.87898 16.8494 6.45898 16.5994 6.16898C16.4604 6.01998 16.2694 5.92898 16.0704 5.90898Z" fill="#FF5555"/>
</svg>
