<svg width="28" height="35" viewBox="0 0 28 35" fill="none" xmlns="http://www.w3.org/2000/svg">
<path d="M23.3828 11.5942C23.1564 11.3741 22.8386 11.2741 22.5277 11.3253C22.2162 11.3762 21.9472 11.5718 21.8027 11.8524C21.3057 12.8179 20.6744 13.7051 19.9318 14.4895C20.0058 13.9229 20.0431 13.3529 20.0431 12.7814C20.0431 11.6848 19.8961 10.5564 19.6061 9.42704C18.6526 5.71752 16.1524 2.58042 12.7468 0.820189C12.4503 0.66699 12.097 0.672369 11.8053 0.834533C11.5136 0.996764 11.3225 1.2942 11.2964 1.62689C11.0309 4.99794 9.29447 8.06484 6.52978 10.0432C6.49319 10.0696 6.45687 10.0963 6.42054 10.1228C6.34531 10.1779 6.27438 10.23 6.20811 10.2736C6.19775 10.2806 6.18746 10.2876 6.17736 10.2948C4.43858 11.5398 3.00388 13.1992 2.02817 15.0944C1.03672 17.0221 0.534027 19.0907 0.534027 21.2426C0.534027 22.3389 0.680984 23.4673 0.970847 24.5969C2.50052 30.5507 7.85844 34.7089 14.0004 34.7089C21.4253 34.7089 27.4659 28.6679 27.4659 21.2426C27.4659 17.581 26.0158 14.1544 23.3828 11.5942V11.5942Z" fill="#FF5555"/>
<circle cx="13" cy="20.709" r="4" fill="white"/>
</svg>
