<svg width="20" height="22" viewBox="0 0 20 22" fill="none" xmlns="http://www.w3.org/2000/svg">
<path d="M12 20.488H8.00002M16 7.48804C16 5.89674 15.3679 4.37061 14.2427 3.2454C13.1174 2.12018 11.5913 1.48804 10 1.48804C8.40872 1.48804 6.8826 2.12018 5.75738 3.2454C4.63216 4.37061 4.00002 5.89674 4.00002 7.48804C4.00002 10.5782 3.22049 12.694 2.34968 14.0934C1.61515 15.2739 1.24788 15.8641 1.26134 16.0288C1.27626 16.2111 1.31488 16.2806 1.46179 16.3896C1.59448 16.488 2.19261 16.488 3.38887 16.488H16.6112C17.8074 16.488 18.4056 16.488 18.5382 16.3896C18.6852 16.2806 18.7238 16.2111 18.7387 16.0288C18.7522 15.8641 18.3849 15.2739 17.6504 14.0935C16.7795 12.694 16 10.5782 16 7.48804Z" stroke="white" stroke-width="2" stroke-linecap="round" stroke-linejoin="round"/>
</svg>
