<svg width="480" height="317" viewBox="0 0 480 317" fill="none" xmlns="http://www.w3.org/2000/svg">
<path d="M133.741 258.456C187.082 311.797 220.337 375.094 231.002 434.292C241.667 493.492 229.736 548.542 192.784 585.493C155.833 622.445 100.783 634.376 41.5826 623.711C-17.6151 613.046 -80.9116 579.791 -134.253 526.45C-187.594 473.109 -220.849 409.812 -231.514 350.614C-242.179 291.414 -230.248 236.364 -193.296 199.413C-156.345 162.461 -101.295 150.53 -42.0947 161.195C17.1031 171.86 80.3996 205.115 133.741 258.456Z" stroke="white"/>
<path d="M165.741 226.456C219.082 279.797 252.337 343.094 263.002 402.292C273.667 461.492 261.736 516.542 224.784 553.493C187.833 590.445 132.783 602.376 73.5826 591.711C14.3849 581.046 -48.9116 547.791 -102.253 494.45C-155.594 441.109 -188.849 377.812 -199.514 318.614C-210.179 259.414 -198.248 204.364 -161.296 167.413C-124.345 130.461 -69.2946 118.53 -10.0947 129.195C49.1031 139.86 112.4 173.115 165.741 226.456Z" stroke="white"/>
<path d="M197.741 194.456C251.082 247.797 284.337 311.094 295.002 370.292C305.667 429.492 293.736 484.542 256.784 521.493C219.833 558.445 164.783 570.376 105.583 559.711C46.3849 549.046 -16.9116 515.791 -70.2527 462.45C-123.594 409.109 -156.849 345.812 -167.514 286.614C-178.179 227.414 -166.248 172.364 -129.296 135.413C-92.3446 98.4614 -37.2946 86.5302 21.9053 97.1952C81.1031 107.86 144.4 141.115 197.741 194.456Z" stroke="white"/>
<path d="M462.912 163.68L447.837 180.35L467.325 191.546L446.813 182.361L442.187 204.355L444.583 182.008L422.237 184.405L444.23 179.778L435.045 159.266L446.241 178.754L462.912 163.68Z" fill="white"/>
</svg>
