<svg width="22" height="23" viewBox="0 0 22 23" fill="none" xmlns="http://www.w3.org/2000/svg">
<path d="M11.0001 1.97607L9.69856 7.18206C9.4446 8.19792 9.31762 8.70585 9.05315 9.11916C8.81921 9.48475 8.50874 9.79522 8.14315 10.0292C7.72984 10.2936 7.22191 10.4206 6.20605 10.6746L1.00006 11.9761L6.20605 13.2776C7.22191 13.5315 7.72984 13.6585 8.14315 13.923C8.50874 14.1569 8.81921 14.4674 9.05315 14.833C9.31762 15.2463 9.4446 15.7542 9.69856 16.7701L11.0001 21.9761L12.3016 16.7701C12.5555 15.7542 12.6825 15.2463 12.947 14.833C13.1809 14.4674 13.4914 14.1569 13.857 13.923C14.2703 13.6585 14.7782 13.5315 15.7941 13.2776L21.0001 11.9761L15.7941 10.6746C14.7782 10.4206 14.2703 10.2936 13.857 10.0292C13.4914 9.79523 13.1809 9.48475 12.947 9.11916C12.6825 8.70585 12.5555 8.19792 12.3016 7.18207L11.0001 1.97607Z" stroke="white" stroke-width="2" stroke-linecap="round" stroke-linejoin="round"/>
</svg>
